# Blender 4.0.2
# www.blender.org
o Cube
v -0.454979 -0.000186 -0.435028
v -0.000186 -0.454979 -0.435028
v -0.000357 -0.000357 0.389460
v 0.000203 -0.454979 -0.435028
v 0.454997 -0.000186 -0.435028
v 0.000357 -0.000357 0.389460
v -0.454979 0.000203 -0.435028
v -0.000357 0.000357 0.389460
v -0.000186 0.454997 -0.435028
v 0.454997 0.000203 -0.435028
v 0.000203 0.454997 -0.435028
v 0.000255 0.000255 0.144037
v -0.544735 -0.000225 -0.464995
v -0.000225 -0.544735 -0.464995
v 0.544752 -0.000225 -0.464995
v 0.000242 -0.544735 -0.464995
v -0.544735 0.000242 -0.464995
v -0.000225 0.544752 -0.464995
v 0.544752 0.000242 -0.464995
v 0.000242 0.544752 -0.464995
v -0.000357 -0.000357 0.389460
v -0.196915 -0.000076 -0.441183
v -0.000076 -0.196915 -0.441183
v 0.000357 -0.000357 0.389460
v 0.000093 -0.196915 -0.441183
v 0.196932 -0.000076 -0.441183
v -0.000076 0.196932 -0.441183
v -0.196915 0.000093 -0.441183
v -0.000357 0.000357 0.389460
v 0.000255 0.000255 0.144037
v 0.196932 0.000093 -0.441183
v 0.000093 0.196932 -0.441183
v -0.000185 -0.000185 0.823684
v -0.432811 -0.000185 -0.212021
v -0.000185 -0.432811 -0.212021
v 0.000185 -0.000185 0.823684
v 0.000185 -0.432811 -0.212021
v 0.432811 -0.000185 -0.212021
v -0.000185 0.432811 -0.212021
v -0.432811 0.000185 -0.212021
v -0.000185 0.000185 0.823684
v 0.000185 0.000185 0.823684
v 0.432811 0.000185 -0.212021
v 0.000185 0.432811 -0.212021
vn -0.0000 -0.0000 1.0000
vn 1.0000 -0.0000 -0.0000
vn 0.0238 0.0238 0.9994
vn 1.0000 -0.0004 -0.0004
vn -0.0238 0.0238 0.9994
vn -0.8757 -0.0000 0.4829
vn -0.0000 -0.8757 0.4829
vn 0.0041 1.0000 0.0025
vn -0.0000 0.7865 0.6176
vn -0.3018 0.3018 0.9043
vn 0.3018 0.3018 0.9043
vn -0.3018 -0.3018 0.9043
vn 0.3018 -0.3018 0.9043
vn -0.5716 -0.5716 -0.5887
vn -1.0000 0.0001 0.0003
vn 0.5716 -0.5716 -0.5886
vn -0.0001 -1.0000 0.0003
vn -0.0004 -1.0000 -0.0004
vn -1.0000 0.0004 -0.0004
vn 0.0238 -0.0238 0.9994
vn -0.0238 -0.0238 0.9994
vn 0.0004 1.0000 -0.0004
vn -0.6781 -0.6781 0.2833
vn 0.6781 -0.6781 0.2833
vn -0.6781 0.6781 0.2833
vn 0.6781 0.6781 0.2833
vn 1.0000 -0.0010 -0.0004
vn 0.0001 1.0000 0.0004
vn 1.0000 -0.0001 0.0004
vn -0.0002 -1.0000 -0.0001
vn -0.5716 0.5716 -0.5886
vn -1.0000 0.0010 -0.0004
vn 0.5716 0.5716 -0.5886
vn 0.0010 1.0000 -0.0004
vn 0.7071 0.7071 0.0015
vn -1.0000 -0.0004 -0.0004
vn 0.7865 -0.0000 0.6176
vn 1.0000 0.0041 0.0025
vn -1.0000 -0.0002 -0.0001
vn 0.0010 -1.0000 -0.0004
vn -0.0004 1.0000 -0.0004
vn 1.0000 0.0004 -0.0004
vn 0.0004 -1.0000 -0.0004
vn 1.0000 0.0001 0.0004
vn -0.0010 1.0000 -0.0004
vn 1.0000 0.0010 -0.0004
vn 0.0001 -1.0000 0.0003
vn -1.0000 -0.0001 0.0003
vn -0.0001 1.0000 0.0004
vt 0.500053 0.124947
vt 0.499947 0.125053
vt 0.499947 0.124947
vt 0.499947 0.374947
vt 0.249947 0.750000
vt 0.249947 0.625054
vt 0.500053 0.374947
vt 0.500054 0.125053
vt 0.625000 0.875054
vt 0.500054 0.875053
vt 0.125000 0.624946
vt 0.249947 0.624947
vt 0.500054 0.000000
vt 0.499947 0.000000
vt 0.625000 0.124947
vt 0.250053 0.624946
vt 0.249947 0.500000
vt 0.250053 0.500000
vt 0.625000 0.375053
vt 0.625000 0.374947
vt 0.250053 0.750000
vt 0.500053 0.874946
vt 0.625000 0.874947
vt 0.625000 0.125053
vt 0.125000 0.625054
vt 0.500054 0.250000
vt 0.500054 0.375053
vt 0.250053 0.625053
s 0
f 6/1/1 8/2/1 3/3/1
f 8/2/2 27/4/2 29/2/2
f 2/5/3 22/6/3 1/6/3
f 11/7/4 30/8/4 32/7/4
f 5/9/5 25/10/5 4/10/5
f 1/6/6 8/11/6 7/12/6
f 4/13/7 3/3/7 2/14/7
f 5/15/8 12/8/8 6/1/8
f 9/4/9 12/8/9 11/7/9
f 17/16/10 9/17/10 18/18/10
f 19/19/11 11/7/11 10/20/11
f 1/6/12 14/21/12 2/5/12
f 5/9/13 16/22/13 15/23/13
f 22/6/14 35/5/14 34/6/14
f 30/8/15 44/7/15 32/7/15
f 25/10/16 38/9/16 37/10/16
f 29/11/17 40/12/17 28/12/17
f 5/15/18 24/1/18 26/15/18
f 2/14/19 21/3/19 23/14/19
f 12/8/2 31/24/2 30/8/2
f 7/12/20 27/17/20 9/17/20
f 6/1/2 25/13/2 24/1/2
f 11/7/21 31/20/21 10/20/21
f 3/25/2 22/6/2 21/25/2
f 7/12/22 29/11/22 28/12/22
f 34/6/23 35/5/23 33/25/23
f 37/13/24 38/15/24 36/1/24
f 40/12/25 41/11/25 39/17/25
f 43/24/26 44/26/26 42/8/26
f 29/2/27 39/4/27 41/2/27
f 24/1/28 38/15/28 26/15/28
f 21/3/29 35/14/29 23/14/29
f 30/8/30 43/24/30 42/8/30
f 28/12/31 39/17/31 27/17/31
f 24/1/32 37/13/32 36/1/32
f 31/20/33 44/7/33 43/20/33
f 21/25/34 34/6/34 33/25/34
f 6/1/35 12/8/35 8/2/35
f 8/2/36 9/4/36 27/4/36
f 2/5/3 23/5/3 22/6/3
f 11/7/2 12/8/2 30/8/2
f 5/9/5 26/9/5 25/10/5
f 1/6/6 3/25/6 8/11/6
f 4/13/7 6/1/7 3/3/7
f 5/15/37 10/24/37 12/8/37
f 9/4/38 8/2/38 12/8/38
f 17/16/10 7/12/10 9/17/10
f 19/19/11 20/27/11 11/7/11
f 1/6/12 13/28/12 14/21/12
f 5/9/13 4/10/13 16/22/13
f 22/6/14 23/5/14 35/5/14
f 30/8/39 42/8/39 44/7/39
f 25/10/16 26/9/16 38/9/16
f 29/11/40 41/11/40 40/12/40
f 5/15/2 6/1/2 24/1/2
f 2/14/2 3/3/2 21/3/2
f 12/8/41 10/24/41 31/24/41
f 7/12/20 28/12/20 27/17/20
f 6/1/42 4/13/42 25/13/42
f 11/7/21 32/7/21 31/20/21
f 3/25/43 1/6/43 22/6/43
f 7/12/2 8/11/2 29/11/2
f 29/2/44 27/4/44 39/4/44
f 24/1/45 36/1/45 38/15/45
f 21/3/46 33/3/46 35/14/46
f 30/8/47 31/24/47 43/24/47
f 28/12/31 40/12/31 39/17/31
f 24/1/48 25/13/48 37/13/48
f 31/20/33 32/7/33 44/7/33
f 21/25/49 22/6/49 34/6/49
